<?xml version="1.0" standalone="no"?>
<!DOCTYPE svg PUBLIC "-//W3C//DTD SVG 20010904//EN"
 "http://www.w3.org/TR/2001/REC-SVG-20010904/DTD/svg10.dtd">
<svg version="1.0" xmlns="http://www.w3.org/2000/svg"
 width="1024.000000pt" height="1024.000000pt" viewBox="0 0 1024.000000 1024.000000"
 preserveAspectRatio="xMidYMid meet">
<metadata>
Created by potrace 1.14, written by Peter Selinger 2001-2017
</metadata>
<g transform="translate(0.000000,1024.000000) scale(0.100000,-0.100000)"
fill="#000000" stroke="none">
<path d="M4156 8815 c-3 -8 -12 -15 -21 -15 -12 0 -15 -13 -15 -65 l0 -65 -86
0 c-80 0 -88 -2 -114 -27 -29 -27 -29 -27 -23 -120 l6 -93 -186 0 c-153 0
-187 -3 -187 -14 0 -8 -7 -16 -15 -20 -12 -4 -15 -24 -15 -91 l0 -85 -190 0
-189 0 -26 -25 c-24 -24 -25 -32 -25 -130 l0 -105 -200 0 c-187 0 -201 -1
-220 -20 -19 -19 -20 -33 -20 -305 l0 -285 -145 0 -145 0 0 -111 0 -112 -85 6
c-80 6 -85 5 -96 -16 -8 -14 -11 -83 -10 -214 l2 -193 -141 0 -142 0 8 -315 7
-315 -192 0 c-184 0 -191 -1 -191 -20 0 -11 -5 -20 -11 -20 -40 0 -39 39 -39
-1438 0 -775 3 -1412 8 -1416 4 -4 7 -11 7 -14 0 -4 10 -17 23 -29 21 -22 28
-23 209 -23 l186 0 -7 -225 -7 -225 140 0 141 0 0 -178 c0 -129 -3 -182 -12
-191 -11 -11 -10 -13 0 -7 7 5 16 -2 22 -18 l10 -26 230 0 230 0 0 -190 0
-190 89 0 c97 0 101 -3 101 -61 l0 -29 126 0 125 0 -3 -32 -3 -33 -358 0 -357
0 0 -52 0 -53 -435 0 -435 0 0 -65 0 -65 -101 0 c-88 0 -100 -2 -95 -16 3 -9
6 -45 6 -80 l0 -64 94 0 94 0 -5 -38 c-10 -75 -53 -71 681 -65 l655 6 3 -74 3
-74 209 -3 c154 -2 212 1 223 10 11 9 14 28 11 75 l-4 63 128 0 127 0 3 -73 3
-72 2065 0 2065 0 3 73 3 72 109 0 109 0 3 -73 3 -72 260 0 260 0 5 70 5 70
323 -3 322 -3 0 60 0 61 95 0 95 0 0 70 c0 80 9 74 -112 70 l-78 -2 0 71 0 71
-455 0 -455 0 0 55 0 55 -112 0 c-156 0 -158 -1 -158 -61 l0 -49 -106 0 -105
0 7 56 7 56 -117 -4 -116 -4 0 33 0 33 115 0 115 0 0 45 0 45 95 0 95 0 0 190
0 190 93 0 c50 0 156 3 234 7 132 6 142 7 148 27 3 12 5 103 5 204 l-1 182
156 0 155 0 0 225 0 225 170 0 c103 0 170 4 170 10 0 5 16 25 35 44 l35 35 0
1400 0 1400 -30 23 c-16 12 -30 28 -30 35 0 10 -38 13 -181 13 l-180 0 7 315
c7 305 6 315 -12 315 -10 1 -81 1 -156 0 l-138 -1 0 195 c0 234 4 226 -110
226 l-79 0 -3 108 -3 107 -142 3 -143 3 0 288 c0 266 -1 289 -18 304 -16 15
-46 17 -215 17 l-197 0 0 103 c0 103 0 104 -30 130 l-30 27 -170 0 -170 0 0
83 c0 73 -3 84 -24 105 -22 20 -34 22 -130 22 l-106 0 0 86 c0 50 -4 83 -9 79
-5 -3 -16 3 -23 13 -17 24 -92 42 -165 40 l-58 -1 55 -7 55 -7 -56 -1 -56 -2
-7 38 c-3 20 -6 54 -6 75 0 28 -7 44 -26 62 l-27 25 -1142 0 c-1007 0 -1144
-2 -1149 -15z m2314 -590 c0 -144 2 -165 17 -174 20 -10 26 -62 9 -73 -6 -4
26 -8 72 -8 71 0 82 -2 82 -17 0 -13 3 -14 8 -5 10 15 80 17 455 14 l277 -2 0
-215 c0 -118 3 -215 8 -215 4 0 7 -142 7 -315 l0 -315 -162 0 c-156 0 -163 -1
-163 -20 0 -13 -7 -20 -20 -20 -13 0 -20 -7 -20 -20 0 -11 -7 -23 -15 -26 -13
-5 -15 -36 -15 -190 0 -189 4 -213 43 -242 9 -7 17 -20 17 -28 0 -11 15 -14
68 -14 37 0 138 -3 225 -7 156 -6 158 -6 164 15 3 12 9 22 14 22 4 0 19 11 33
24 19 17 26 33 26 61 0 37 1 37 31 31 17 -3 69 -6 115 -6 l84 0 0 -205 0 -205
180 -2 c99 -2 180 -6 180 -10 0 -5 0 -98 0 -208 l0 -200 -145 0 c-86 0 -145
-4 -145 -10 0 -17 -41 -34 -50 -20 -5 8 -9 6 -14 -6 -4 -11 -2 -20 3 -22 6 -2
11 -10 11 -18 0 -9 -4 -12 -10 -9 -5 3 -10 3 -10 -2 -6 -312 -5 -361 14 -382
10 -11 16 -27 12 -36 -3 -9 1 -18 9 -21 8 -4 15 -12 15 -20 0 -8 5 -14 11 -14
5 0 7 5 4 10 -3 6 -1 10 5 10 6 0 10 -8 8 -17 -2 -12 -14 -19 -35 -21 -25 -3
-33 -9 -37 -30 -3 -15 -5 -206 -4 -425 0 -218 -2 -400 -5 -403 -3 -4 -31 -7
-61 -8 -43 -1 -56 -5 -60 -18 -2 -10 -14 -18 -25 -18 -14 0 -21 -6 -21 -20 0
-10 -7 -23 -16 -28 -13 -7 -15 -37 -17 -185 l-2 -177 -118 0 -119 0 3 -102 3
-103 -192 -3 -192 -2 0 -203 c0 -191 -1 -204 -20 -220 -18 -15 -53 -17 -370
-17 l-350 0 0 -150 0 -150 -110 0 c-92 0 -110 -3 -110 -15 0 -9 -11 -21 -25
-27 -14 -6 -25 -15 -25 -19 0 -5 -11 -19 -25 -33 -14 -14 -25 -30 -25 -36 0
-5 -9 -10 -20 -10 -19 0 -20 8 -22 216 l-3 216 -142 2 -143 1 0 -216 0 -216
-107 -6 c-58 -4 -141 -7 -185 -7 l-78 0 0 -120 0 -120 -165 0 -164 0 -3 121
-3 121 -122 -1 -123 -2 0 65 c0 60 -2 66 -21 66 -14 0 -19 5 -16 14 4 9 -1 17
-12 21 -11 3 -21 15 -24 25 -5 19 -14 20 -131 20 -121 0 -126 -1 -126 -21 0
-12 -8 -23 -20 -26 -11 -3 -20 -12 -20 -19 0 -8 -4 -14 -10 -14 -6 0 -10 -28
-10 -65 l0 -65 -332 -2 -333 -3 328 -2 327 -3 0 -180 c0 -106 -4 -181 -10
-185 -5 -3 -18 -1 -28 4 -11 6 -22 7 -26 4 -4 -4 -24 -6 -45 -4 -22 1 -42 -3
-46 -8 -3 -6 -11 -9 -16 -6 -5 4 -21 -3 -35 -14 -14 -11 -41 -25 -60 -31 -19
-6 -34 -16 -34 -21 0 -5 -6 -9 -14 -9 -8 0 -17 -6 -19 -12 -3 -8 -6 -6 -6 5
-1 15 -16 17 -175 17 -180 0 -206 3 -206 25 0 7 -8 15 -19 18 -16 4 -18 15
-19 88 l0 84 -201 -4 -200 -3 -3 123 -3 124 -184 1 c-142 2 -186 5 -192 15 -7
12 -14 207 -13 373 l0 49 -128 -5 c-71 -3 -123 -1 -116 3 8 6 0 8 -22 8 -25 0
-30 -2 -17 -8 23 -9 23 -19 1 -35 -11 -8 -14 -18 -9 -26 5 -9 4 -11 -3 -6 -7
4 -12 23 -12 43 0 20 -3 34 -6 30 -4 -3 -6 -26 -6 -51 1 -28 -5 -51 -14 -60
-8 -9 -15 -19 -15 -23 -1 -4 -5 -15 -10 -23 -5 -10 -9 15 -9 67 0 110 -2 113
-64 113 -37 0 -47 3 -36 10 13 9 13 12 -3 24 -9 7 -17 23 -17 34 0 15 -5 20
-15 15 -9 -3 -15 -2 -14 3 4 21 -2 34 -15 34 -9 0 -16 17 -21 49 -4 28 -13 52
-21 55 -8 3 -14 16 -14 30 0 13 -7 26 -15 30 -11 4 -15 22 -15 71 l0 65 -100
0 -100 0 -2 218 c-4 657 -6 2213 -2 2252 l5 45 101 2 c81 1 103 4 110 17 11
20 28 21 28 1 0 -12 17 -15 98 -15 l97 0 1 218 c1 119 2 261 3 315 l1 98 187
-1 188 -2 0 74 c0 40 1 134 3 208 l2 135 195 -3 195 -4 0 216 0 216 200 0 200
0 0 215 0 215 453 0 452 0 -1 162 c-1 90 0 184 3 211 l5 47 1024 -1 1024 0 0
-164z m1130 -888 c0 -129 4 -187 12 -195 9 -9 8 -12 -5 -12 -12 0 -17 8 -17
31 0 16 -4 28 -9 25 -5 -3 -11 4 -14 17 -3 12 -15 56 -27 97 -13 43 -22 100
-22 133 1 32 -3 57 -9 57 -6 0 -8 4 -4 9 3 6 -16 12 -42 14 -27 2 -7 4 45 5
l92 2 0 -183z m229 -409 c-1 -101 -3 -175 -6 -165 -2 9 -8 17 -13 17 -4 0 -13
14 -19 30 -6 17 -16 43 -22 60 -6 16 -15 27 -20 24 -5 -3 -9 1 -10 8 0 7 -2
27 -4 43 -4 41 5 76 17 69 6 -4 8 -1 6 7 -3 8 -2 21 3 30 13 26 -20 47 -81 52
-33 2 -14 4 48 5 l102 2 -1 -182z m-289 -33 c14 -8 19 -14 12 -15 -7 0 -10 -4
-7 -10 3 -5 -4 -10 -16 -10 -16 0 -20 5 -16 20 4 17 -1 19 -47 23 l-51 3 50 2
c28 1 61 -5 75 -13z m573 -212 c-35 -2 -91 -2 -125 0 -35 2 -7 3 62 3 69 0 97
-1 63 -3z m61 -2045 c-5 -10 -4 -10 5 -2 18 17 50 5 48 -17 -1 -10 -5 -19 -9
-19 -5 0 -13 -10 -19 -22 -8 -21 -9 -20 -5 7 4 28 3 29 -11 10 -14 -19 -15
-19 -8 5 4 14 4 22 0 18 -9 -9 -35 9 -35 23 0 5 9 9 21 9 13 0 18 -4 13 -12z
m-309 -47 c3 -5 1 -12 -5 -16 -5 -3 -10 1 -10 9 0 18 6 21 15 7z m316 -58 c1
-34 2 -35 9 -13 5 16 8 -23 9 -103 1 -128 1 -128 -21 -125 -16 2 -22 9 -20 23
8 66 10 152 4 162 -10 16 -2 93 9 93 5 0 9 -17 10 -37z m-228 -320 c-13 -2
-33 -2 -45 0 -13 2 -3 4 22 4 25 0 35 -2 23 -4z m669 -811 l3 -272 -200 2
-200 2 166 5 c168 6 199 13 199 47 0 8 5 14 10 14 6 0 11 137 12 388 1 213 4
320 5 237 2 -82 4 -273 5 -423z m-432 -607 c0 -91 -2 -104 -16 -98 -11 4 -12
9 -5 16 6 6 11 50 11 99 0 48 2 88 5 88 3 0 5 -47 5 -105z m-5495 44 c-7 -11
-90 -19 -131 -12 -53 9 -15 22 47 16 33 -3 51 0 60 10 10 10 16 11 21 4 4 -6
5 -14 3 -18z m3192 -181 c6 -7 11 -64 12 -125 l3 -113 -126 0 -126 0 0 119 c0
86 3 121 13 124 28 12 215 7 224 -5z m1943 -228 l0 -160 -137 2 -138 2 130 6
130 5 3 153 c1 83 5 152 7 152 3 0 5 -72 5 -160z m-3153 -52 c-3 -7 -5 -2 -5
12 0 14 2 19 5 13 2 -7 2 -19 0 -25z m-380 -120 c-3 -8 -6 -5 -6 6 -1 11 2 17
5 13 3 -3 4 -12 1 -19z m-139 -305 c-10 -2 -28 -2 -40 0 -13 2 -5 4 17 4 22 1
32 -1 23 -4z m565 0 c-7 -2 -21 -2 -30 0 -10 3 -4 5 12 5 17 0 24 -2 18 -5z"/>
<path d="M6273 8025 c0 -27 2 -38 4 -22 2 15 2 37 0 50 -2 12 -4 0 -4 -28z"/>
<path d="M7040 7940 c12 -8 11 -10 -7 -10 l-22 0 2 -197 2 -198 94 -3 c122 -4
123 -2 120 107 l-3 85 56 12 c31 6 62 17 70 25 16 16 21 58 8 74 -4 5 -11 27
-15 48 -6 31 -12 39 -36 44 -16 3 -26 9 -23 14 3 5 -54 9 -128 9 -90 0 -128
-3 -118 -10z"/>
<path d="M6647 7923 c-4 -3 -7 -44 -7 -90 l0 -83 148 2 147 2 -105 6 c-58 3
-90 7 -72 8 17 1 32 6 32 10 0 14 -22 31 -35 26 -7 -3 -16 -1 -20 5 -3 6 -14
11 -24 11 -11 0 -21 10 -25 23 -5 18 -8 20 -16 7 -8 -13 -10 -12 -11 5 -1 11
0 32 1 48 2 27 -1 32 -13 20z"/>
<path d="M5000 7817 c0 -7 -13 -23 -30 -35 -29 -22 -30 -25 -30 -105 0 -71 3
-84 20 -95 11 -7 20 -19 20 -27 0 -12 18 -15 100 -15 84 0 100 3 100 16 0 8 5
12 10 9 6 -3 10 1 10 10 0 9 9 19 20 22 19 5 20 13 19 75 -1 43 -7 75 -15 83
-8 7 -14 18 -14 24 0 6 -6 10 -12 9 -7 -2 -14 7 -16 20 -3 21 -8 22 -93 22
-67 0 -89 -3 -89 -13z"/>
<path d="M5690 7804 c0 -18 -4 -25 -14 -21 -30 12 -46 -26 -46 -106 0 -63 3
-77 16 -77 8 0 20 -13 25 -30 l11 -30 94 0 c89 0 94 1 94 21 0 15 5 19 16 15
8 -3 13 -2 10 2 -3 5 4 16 15 25 16 14 19 28 17 87 -1 38 -6 70 -11 70 -14 0
-57 43 -57 58 0 9 -24 12 -85 12 -85 0 -85 0 -85 -26z"/>
<path d="M6265 7518 c-6 -13 -16 -22 -23 -20 -9 1 -12 -21 -12 -81 0 -46 -3
-125 -6 -175 -6 -80 -5 -92 9 -92 9 0 19 -9 22 -20 6 -19 15 -20 181 -20 148
0 174 2 174 15 0 8 7 15 15 15 8 0 15 6 15 14 0 8 7 16 15 20 12 4 15 30 15
141 0 81 -4 135 -10 135 -5 0 -12 11 -16 25 -3 13 -9 24 -13 23 -19 -2 -29 4
-34 22 -5 19 -14 20 -164 20 -154 0 -159 -1 -168 -22z"/>
<path d="M4508 6973 c12 -2 30 -2 40 0 9 3 -1 5 -23 4 -22 0 -30 -2 -17 -4z"/>
<path d="M5340 6966 c0 -8 -9 -18 -21 -21 -11 -4 -24 -18 -29 -31 -5 -13 -16
-24 -25 -24 -13 0 -15 -20 -15 -130 0 -99 3 -131 14 -137 8 -4 16 -17 18 -28
2 -11 9 -19 16 -18 6 2 16 -6 22 -17 10 -19 21 -20 155 -20 144 0 145 0 151
24 3 14 12 23 22 22 10 -1 18 8 20 22 2 12 8 22 13 22 5 0 9 56 9 129 0 105
-3 130 -15 135 -8 3 -15 12 -15 21 0 8 -11 20 -25 25 -14 5 -25 16 -25 25 0
13 -21 15 -135 15 -111 0 -135 -3 -135 -14z"/>
<path d="M5833 6453 c15 -2 37 -2 50 0 12 2 0 4 -28 4 -27 0 -38 -2 -22 -4z"/>
<path d="M5908 6385 c-2 -19 0 -35 4 -35 4 0 8 16 8 35 0 19 -2 35 -4 35 -2 0
-6 -16 -8 -35z"/>
<path d="M4208 6273 c7 -3 16 -2 19 1 4 3 -2 6 -13 5 -11 0 -14 -3 -6 -6z"/>
<path d="M4251 6234 c0 -11 3 -14 6 -6 3 7 2 16 -1 19 -3 4 -6 -2 -5 -13z"/>
<path d="M4251 6194 c0 -11 3 -14 6 -6 3 7 2 16 -1 19 -3 4 -6 -2 -5 -13z"/>
<path d="M2791 6166 c-6 -7 -25 -16 -41 -19 -16 -4 -47 -18 -70 -32 -22 -14
-44 -25 -50 -25 -5 0 -10 -6 -10 -14 0 -7 -9 -16 -20 -19 -11 -3 -24 -17 -30
-32 -6 -17 -16 -25 -24 -22 -10 4 -16 -5 -21 -30 -3 -20 -13 -42 -21 -50 -8
-8 -14 -23 -14 -34 0 -10 -6 -18 -12 -16 -9 1 -12 -10 -10 -35 2 -22 -2 -38
-8 -38 -7 0 -10 -97 -10 -295 0 -190 4 -295 10 -295 6 0 10 -18 10 -40 0 -33
3 -40 20 -40 13 0 18 -5 14 -15 -11 -27 6 -64 36 -82 17 -9 33 -26 36 -38 7
-19 41 -50 57 -50 4 0 12 -7 17 -15 5 -8 10 -10 10 -5 0 6 3 6 8 0 14 -21 67
-52 80 -48 8 3 16 -4 19 -16 5 -21 9 -21 314 -21 298 0 309 1 319 20 6 11 14
19 18 17 17 -5 82 27 82 40 0 8 5 11 10 8 6 -3 10 -1 10 4 0 6 8 11 18 11 19
0 56 53 45 64 -4 4 0 4 10 1 12 -5 19 0 27 20 6 15 20 29 31 32 18 5 20 11 14
40 -5 29 -3 35 14 40 15 4 21 13 21 33 0 16 7 30 15 34 22 8 23 591 1 599 -10
4 -13 16 -10 36 4 24 1 31 -10 31 -15 0 -21 12 -17 33 1 5 -12 29 -29 53 -16
25 -30 49 -30 55 0 5 -7 9 -15 9 -8 0 -15 7 -15 15 0 8 -6 15 -14 15 -7 0 -22
11 -32 25 -10 14 -24 25 -31 25 -6 0 -18 6 -25 14 -8 7 -32 19 -53 27 -22 8
-44 20 -48 26 -12 20 -580 18 -596 -1z m269 -137 c0 -18 5 -20 26 -16 27 5 69
-24 56 -39 -4 -4 0 -5 9 -1 14 5 53 -27 54 -44 0 -3 8 -13 17 -23 9 -9 15 -23
12 -31 -4 -9 0 -15 10 -15 10 0 16 -9 16 -25 0 -14 5 -25 10 -25 6 0 10 -40
10 -100 0 -82 -3 -100 -15 -100 -10 0 -15 -10 -15 -30 0 -16 -4 -30 -10 -30
-5 0 -12 -11 -16 -25 -3 -14 -11 -25 -18 -25 -6 0 -18 -9 -26 -20 -8 -11 -18
-20 -23 -20 -4 0 -20 -11 -35 -25 -15 -14 -33 -23 -39 -20 -7 2 -13 -2 -13
-10 0 -9 -6 -12 -15 -9 -8 4 -15 1 -15 -5 0 -14 -156 -15 -165 -1 -3 6 -19 10
-35 10 -16 0 -30 7 -34 16 -4 10 -13 13 -26 9 -13 -4 -20 -2 -20 7 0 15 -18
32 -63 61 -15 10 -25 22 -22 27 3 5 -3 15 -13 21 -12 8 -17 19 -14 32 3 12 -1
23 -12 29 -13 7 -16 26 -16 108 0 58 4 100 10 100 5 0 7 7 4 15 -4 9 0 15 10
15 9 0 16 8 16 20 0 10 11 30 25 44 14 14 25 33 25 43 0 15 2 16 10 3 8 -13
10 -12 10 3 0 9 7 17 15 17 8 0 15 7 15 16 0 8 5 12 10 9 6 -3 10 -2 10 4 0 6
7 8 15 5 8 -3 21 1 30 10 9 8 22 13 30 10 8 -4 15 -1 15 4 0 14 29 19 118 21
67 1 72 0 72 -20z m273 -667 c19 -2 27 -7 27 -21 0 -12 7 -18 18 -17 10 0 16
-6 16 -16 -1 -10 4 -18 12 -18 23 0 21 -134 -2 -157 -8 -8 -14 -19 -14 -25 0
-6 -6 -5 -16 2 -13 11 -16 10 -21 -8 -5 -20 -12 -22 -69 -22 -50 0 -64 3 -64
15 0 9 -9 15 -24 15 -19 0 -23 4 -19 19 3 14 0 19 -14 18 -14 -2 -19 6 -21 38
-5 63 7 125 23 119 8 -4 15 3 17 18 2 15 9 22 21 20 9 -2 17 1 17 7 0 5 8 11
18 13 16 3 29 3 95 0z"/>
<path d="M6120 6165 c-7 -9 -19 -14 -25 -11 -7 2 -22 -2 -34 -10 -11 -8 -21
-12 -21 -7 0 4 -5 1 -10 -7 -5 -8 -13 -15 -18 -15 -5 0 -16 -8 -26 -17 -10
-10 -21 -18 -26 -18 -5 0 -11 -8 -14 -18 -3 -9 -16 -22 -28 -27 -13 -6 -24
-20 -26 -32 -2 -13 -10 -23 -17 -23 -17 0 -35 -31 -35 -59 0 -12 -4 -21 -10
-21 -5 0 -10 -9 -10 -21 0 -15 -4 -19 -16 -15 -14 5 -16 1 -11 -29 3 -19 2
-35 -4 -35 -5 0 -9 -120 -9 -300 0 -193 4 -300 10 -300 6 0 10 -16 10 -35 0
-24 5 -35 15 -35 11 0 15 -11 15 -39 0 -29 4 -40 19 -44 10 -2 25 -17 33 -33
8 -16 19 -28 26 -27 6 2 14 -6 17 -17 3 -11 12 -17 20 -14 8 3 16 -3 20 -15 3
-12 11 -19 16 -16 5 4 9 1 9 -4 0 -6 7 -11 15 -11 8 0 24 -9 34 -19 12 -12 27
-17 41 -14 16 4 23 0 27 -16 5 -21 7 -21 329 -21 270 0 324 2 324 14 0 8 12
17 28 21 15 3 43 22 64 42 20 19 41 32 47 29 10 -6 37 32 33 47 -1 4 5 7 13 7
8 0 15 7 15 15 0 8 11 22 25 31 18 12 25 25 25 49 0 25 5 34 21 38 12 3 20 13
19 24 -4 36 0 53 13 50 9 -1 13 63 15 293 2 259 0 295 -13 303 -12 6 -14 17
-10 37 5 22 2 28 -16 33 -15 4 -20 11 -15 22 3 9 -2 25 -14 37 -11 12 -17 25
-14 29 2 4 -5 14 -16 22 -11 7 -17 16 -14 19 3 4 -4 9 -15 13 -12 3 -21 11
-21 17 0 9 -21 30 -76 77 -8 7 -41 26 -72 42 l-57 29 -296 0 c-255 0 -298 -2
-309 -15z m269 -122 c-4 -26 3 -33 26 -27 17 4 27 1 31 -9 3 -9 12 -13 20 -10
8 3 14 -1 14 -11 0 -9 4 -15 9 -13 17 4 71 -62 64 -80 -3 -10 -3 -15 2 -11 13
12 35 -12 35 -38 0 -13 5 -24 10 -24 6 0 10 -40 10 -100 0 -60 -4 -100 -10
-100 -5 0 -10 -7 -10 -15 0 -8 -7 -15 -15 -15 -8 0 -15 -4 -15 -10 0 -5 6 -10
13 -10 8 0 7 -4 -3 -10 -8 -5 -16 -15 -16 -22 -1 -7 -2 -20 -3 -28 -1 -13 -2
-13 -11 0 -9 13 -10 13 -10 0 0 -17 -40 -56 -53 -52 -5 1 -11 -7 -14 -18 -4
-14 -14 -20 -33 -20 -15 0 -30 -6 -33 -14 -3 -8 -14 -15 -24 -16 -10 -1 -51
-3 -92 -6 -54 -4 -71 -3 -66 6 5 8 0 11 -16 9 -14 -2 -35 4 -48 13 -13 9 -30
14 -37 11 -8 -3 -14 1 -14 11 0 9 -6 16 -14 16 -12 0 -42 28 -88 80 -10 11
-18 34 -18 50 0 20 -5 30 -15 30 -22 0 -22 195 0 204 8 3 12 11 9 19 -3 8 2
20 11 27 8 7 15 18 15 25 0 7 11 20 25 29 15 10 22 22 19 31 -4 9 0 15 10 15
8 0 20 9 26 20 6 11 16 18 22 14 5 -4 14 -1 18 6 5 7 25 14 47 14 27 1 39 7
41 19 3 15 16 17 93 17 49 0 88 -3 88 -7z m301 -690 c0 -7 9 -13 20 -13 15 0
20 -7 20 -25 0 -15 6 -25 15 -25 29 0 32 -142 2 -148 -8 -2 -17 -12 -20 -23
-3 -12 -11 -17 -21 -13 -11 4 -16 1 -16 -10 0 -13 -12 -16 -70 -16 -56 0 -70
3 -70 15 0 8 -4 15 -10 15 -19 0 -25 4 -38 28 -29 58 -27 152 4 152 12 0 15 6
11 21 -4 15 1 22 19 29 13 5 24 13 24 17 0 5 29 8 65 8 46 0 65 -3 65 -12z"/>
<path d="M4080 5949 c0 -5 -4 -7 -10 -4 -5 3 -10 1 -10 -6 0 -6 -8 -18 -17
-25 -16 -11 -18 -26 -15 -111 2 -54 7 -100 11 -103 4 -3 10 -13 14 -22 3 -10
13 -18 22 -18 8 0 15 -7 15 -15 0 -12 14 -15 69 -15 59 0 72 3 95 25 15 14 25
29 22 34 -3 5 2 11 12 13 15 4 17 17 14 111 -3 96 -5 107 -21 107 -10 0 -21 9
-24 20 -5 18 -14 20 -91 20 -54 0 -86 -4 -86 -11z"/>
<path d="M5069 5939 c-5 -11 -16 -19 -24 -19 -12 0 -15 -19 -15 -105 0 -63 4
-105 10 -105 6 0 10 -8 10 -19 0 -11 9 -21 21 -24 15 -4 20 -11 15 -23 -5 -12
-2 -15 10 -10 8 3 46 6 84 6 60 0 68 2 73 20 3 11 11 19 19 18 8 -2 12 4 10
15 -2 9 2 17 8 17 16 0 13 197 -3 207 -8 4 -16 16 -20 26 -6 16 -18 18 -97 16
-77 -1 -92 -4 -101 -20z"/>
<path d="M7650 5911 c0 -6 -11 -11 -24 -11 -32 0 -45 -18 -52 -74 -6 -41 -4
-49 20 -71 32 -30 79 -33 102 -6 10 11 24 16 35 14 17 -5 19 1 19 56 0 55 -2
61 -20 61 -14 0 -20 6 -18 18 2 13 -5 18 -29 20 -19 2 -33 -1 -33 -7z"/>
<path d="M7411 5853 c1 -23 2 -24 6 -6 3 17 13 23 41 26 l37 4 -42 1 c-41 2
-43 1 -42 -25z"/>
<path d="M4780 5627 c0 -20 6 -23 41 -26 28 -1 48 4 61 16 18 16 18 18 1 24
-10 4 -37 8 -60 8 -38 1 -43 -1 -43 -22z"/>
<path d="M4913 5575 c0 -22 2 -30 4 -17 2 12 2 30 0 40 -3 9 -5 -1 -4 -23z"/>
<path d="M4838 5513 c12 -2 32 -2 45 0 12 2 2 4 -23 4 -25 0 -35 -2 -22 -4z"/>
<path d="M4158 5303 c-60 -3 -78 -7 -78 -18 0 -9 -9 -15 -21 -15 -12 0 -30
-11 -41 -25 -11 -14 -23 -23 -28 -20 -9 6 -20 -18 -20 -46 0 -10 -7 -19 -15
-19 -8 0 -17 -10 -20 -22 -9 -36 1 -153 12 -151 6 1 13 -11 17 -28 3 -17 10
-28 15 -25 5 3 18 -10 30 -29 13 -22 28 -35 41 -35 11 0 20 -7 20 -15 0 -12
19 -15 110 -15 l110 0 0 -80 c0 -66 2 -78 15 -74 11 5 17 -3 21 -25 4 -17 11
-31 16 -31 12 0 44 -31 41 -39 -2 -3 0 -6 5 -6 4 0 23 -11 42 -25 21 -15 45
-23 61 -21 20 2 31 -4 39 -18 10 -19 20 -21 109 -21 164 0 281 11 281 26 0 9
11 14 29 14 17 0 32 4 36 10 3 5 12 7 20 4 8 -3 21 5 30 20 10 14 24 26 32 26
8 0 11 5 8 10 -3 6 1 10 10 10 9 0 18 12 22 30 5 27 14 35 36 31 4 0 7 23 7
53 0 30 4 66 10 80 9 25 12 26 104 26 74 0 95 3 100 15 3 8 13 15 21 15 19 0
82 63 90 91 4 10 11 19 16 19 5 0 9 43 9 95 0 78 -3 95 -15 95 -8 0 -15 7 -15
16 0 19 -65 84 -85 84 -7 0 -16 8 -19 18 -6 19 -5 19 -133 14 -31 -1 -43 -6
-43 -17 0 -8 -9 -15 -20 -15 -12 0 -25 -10 -31 -23 -6 -13 -20 -27 -32 -32
-12 -6 -23 -20 -25 -32 -2 -13 -8 -23 -13 -23 -5 0 -9 -40 -9 -90 0 -72 3 -90
14 -90 20 0 26 -12 19 -38 -5 -19 -12 -22 -59 -22 -43 0 -56 -4 -60 -17 -12
-38 -28 -63 -39 -63 -6 0 -18 -11 -25 -25 -7 -14 -22 -25 -32 -25 -10 0 -18
-4 -18 -9 0 -6 -59 -11 -135 -13 -103 -2 -135 0 -135 10 0 6 -7 12 -16 12 -19
0 -66 35 -58 43 3 3 -4 8 -15 12 -12 4 -24 19 -29 38 -8 31 -10 32 -70 35 -61
3 -62 3 -62 32 0 20 5 30 15 30 12 0 15 14 15 68 0 37 3 77 6 90 5 16 2 22
-10 22 -10 0 -16 8 -16 21 0 21 -54 81 -83 92 -10 4 -17 13 -17 22 0 8 -3 14
-7 13 -5 -1 -43 -4 -85 -5z"/>
<path d="M7397 4979 c-3 -12 -10 -18 -16 -14 -7 4 -11 -10 -11 -39 0 -39 3
-46 20 -46 11 0 20 -7 20 -15 0 -11 12 -15 53 -15 30 0 47 4 39 8 -9 6 -6 12
13 20 20 9 25 19 25 47 0 51 -28 75 -89 75 -41 0 -50 -3 -54 -21z"/>
<path d="M3986 4664 c-4 -15 -5 -29 -1 -32 3 -3 5 1 5 9 0 8 6 4 16 -9 12 -18
19 -20 35 -12 16 9 19 7 19 -10 0 -13 4 -18 11 -14 8 4 8 0 0 -15 -8 -13 -8
-21 -1 -21 5 0 17 16 25 36 19 45 19 46 -2 42 -11 -2 -19 5 -21 17 -5 25 -20
35 -53 35 -21 0 -28 -6 -33 -26z"/>
<path d="M2868 4673 c7 -3 16 -2 19 1 4 3 -2 6 -13 5 -11 0 -14 -3 -6 -6z"/>
<path d="M3947 4653 c-10 -9 -9 -93 1 -93 4 0 6 19 4 41 -3 28 0 44 9 50 8 5
9 9 3 9 -6 0 -14 -3 -17 -7z"/>
<path d="M4054 4542 c4 -6 -5 -12 -21 -15 -26 -4 -26 -4 5 -6 32 -1 42 11 20
25 -6 4 -8 3 -4 -4z"/>
<path d="M3970 4530 c0 -5 5 -10 10 -10 6 0 10 5 10 10 0 6 -4 10 -10 10 -5 0
-10 -4 -10 -10z"/>
<path d="M3288 4458 c-2 -15 -9 -22 -19 -20 -10 1 -19 -6 -22 -19 -3 -12 -10
-18 -16 -14 -8 4 -11 -29 -11 -104 0 -92 3 -111 15 -111 8 0 15 -9 15 -20 0
-11 7 -20 15 -20 8 0 20 -9 27 -20 11 -18 24 -20 105 -20 85 0 93 2 93 19 0
11 9 23 21 26 12 4 18 12 15 21 -3 8 0 13 7 11 9 -1 12 26 12 103 0 117 -5
137 -41 150 -13 5 -24 16 -24 25 0 12 -16 15 -94 15 -90 0 -95 -1 -98 -22z"/>
<path d="M5219 4409 c33 -13 21 -21 -16 -10 -27 8 -29 7 -25 -14 4 -25 44 -51
61 -40 6 3 9 11 6 16 -4 5 -3 15 2 22 5 8 10 2 14 -18 7 -30 7 -30 8 -3 1 28
-30 59 -59 57 -8 0 -4 -5 9 -10z"/>
<path d="M5162 4370 c0 -14 2 -19 5 -12 2 6 2 18 0 25 -3 6 -5 1 -5 -13z"/>
<path d="M5230 4321 c0 -5 -12 -12 -27 -14 -26 -4 -26 -4 5 -6 22 -1 32 3 32
14 0 8 -2 15 -5 15 -3 0 -5 -4 -5 -9z"/>
<path d="M6064 4125 c-3 -14 -10 -25 -15 -25 -5 0 -9 -27 -9 -61 0 -53 3 -62
21 -66 14 -4 19 -12 16 -24 -5 -17 1 -19 59 -19 52 0 64 3 64 16 0 10 6 14 14
11 18 -7 26 21 26 96 0 42 -4 57 -14 57 -7 0 -16 9 -19 20 -4 17 -14 20 -71
20 -62 0 -66 -2 -72 -25z"/>
<path d="M4454 3991 c16 -30 51 -47 61 -27 3 6 4 -3 2 -21 -4 -37 8 -36 15 2
3 14 -1 30 -8 36 -8 6 -14 18 -14 25 0 9 -12 14 -35 14 l-36 0 15 -29z"/>
<path d="M2769 3962 c-5 -12 -14 -21 -21 -20 -7 2 -14 -7 -16 -19 -2 -13 -10
-23 -18 -23 -13 0 -15 -31 -12 -226 3 -202 5 -226 21 -235 9 -6 17 -17 17 -26
0 -9 6 -13 14 -10 9 4 17 -2 21 -14 6 -18 16 -19 145 -19 131 0 138 1 143 21
3 12 10 18 16 14 6 -3 15 5 21 19 5 14 14 26 19 26 5 0 7 93 4 223 -4 173 -8
224 -19 233 -8 6 -14 16 -14 23 0 6 -9 11 -19 11 -13 0 -21 8 -23 23 -3 22 -6
22 -137 22 -129 0 -134 -1 -142 -23z"/>
<path d="M4410 3948 c0 -49 6 -47 13 5 3 20 1 37 -4 37 -5 0 -9 -19 -9 -42z"/>
<path d="M6823 3963 c-145 -3 -153 -5 -153 -23 0 -11 -7 -20 -15 -20 -13 0
-15 -27 -15 -185 l0 -185 185 0 185 0 0 210 c0 194 -1 210 -17 208 -10 -1 -87
-4 -170 -5z"/>
<path d="M5153 3952 c-74 -2 -93 -6 -93 -17 0 -8 -9 -15 -20 -15 -19 0 -20 -7
-20 -92 0 -110 6 -135 31 -143 10 -4 19 -13 19 -22 0 -13 13 -15 83 -11 71 4
86 8 110 30 27 26 28 27 25 129 -2 83 -6 104 -18 104 -8 0 -17 9 -20 20 -5 18
-12 20 -97 17z"/>
<path d="M4478 3883 c6 -2 18 -2 25 0 6 3 1 5 -13 5 -14 0 -19 -2 -12 -5z"/>
<path d="M4080 3808 c0 -6 -3 -9 -6 -6 -3 3 -16 -4 -30 -17 -21 -20 -24 -31
-24 -96 0 -66 3 -77 25 -102 14 -15 30 -27 35 -27 6 0 10 -7 10 -15 0 -11 12
-15 53 -15 66 0 97 9 97 26 0 8 7 14 15 14 8 0 12 6 9 14 -3 7 2 16 10 19 21
8 23 159 3 176 -8 6 -17 8 -20 4 -4 -3 -7 3 -7 15 0 21 -4 22 -85 22 -58 0
-85 -4 -85 -12z"/>
<path d="M1996 3783 c-85 -4 -88 -4 -82 -26 3 -12 6 -52 6 -89 0 -58 3 -69 21
-78 17 -9 23 -8 33 6 9 12 15 14 20 6 10 -17 42 -15 60 4 15 14 16 14 16 -5 0
-11 5 -23 10 -26 6 -4 10 33 10 104 0 61 -1 110 -2 109 -2 -1 -43 -4 -92 -5z"/>
<path d="M5690 3610 c0 -5 -7 -10 -15 -10 -8 0 -15 -9 -15 -20 0 -11 -6 -20
-14 -20 -9 0 -17 -15 -21 -39 -8 -46 3 -131 16 -131 5 0 15 -11 21 -25 11 -25
13 -26 107 -23 91 3 96 4 99 26 2 14 10 22 23 22 17 0 19 8 19 76 0 72 -2 79
-30 106 -16 15 -30 33 -30 38 0 6 -34 10 -80 10 -47 0 -80 -4 -80 -10z"/>
<path d="M3583 3420 c-3 -11 -14 -20 -24 -20 -12 0 -19 -7 -19 -20 0 -11 -9
-25 -20 -32 -17 -11 -20 -24 -20 -94 0 -100 8 -144 26 -144 8 0 14 -9 14 -20
0 -12 10 -24 24 -30 13 -5 25 -13 27 -19 2 -5 44 -10 94 -11 118 -2 115 -2
115 14 0 8 10 16 23 18 14 2 23 11 25 26 2 13 10 26 18 29 11 4 14 28 14 109
0 57 -4 104 -8 104 -4 0 -13 14 -19 31 -7 17 -21 33 -32 36 -11 3 -23 14 -26
24 -6 17 -17 19 -107 19 -91 0 -100 -2 -105 -20z"/>
<path d="M6586 3286 c-16 -33 -13 -66 5 -66 5 0 9 -11 9 -25 0 -26 1 -26 71
-23 52 2 74 7 79 18 4 8 12 25 18 37 14 27 15 53 3 53 -5 0 -13 9 -16 20 -6
18 -15 20 -80 20 l-73 0 -16 -34z"/>
<path d="M4420 3219 c0 -11 4 -18 9 -14 5 3 12 1 16 -5 4 -6 11 -8 16 -5 5 4
9 -4 9 -16 0 -22 0 -22 15 -3 14 19 14 19 15 -1 1 -13 4 -15 7 -6 5 11 7 11
14 0 6 -9 9 1 9 29 l0 42 -55 0 c-49 0 -55 -2 -55 -21z"/>
<path d="M4392 3168 c-2 -40 1 -48 16 -48 11 0 13 3 5 8 -6 4 -13 25 -16 47
-4 40 -4 40 -5 -7z"/>
<path d="M4540 3159 c0 -24 4 -38 10 -34 6 3 10 22 10 41 0 19 -4 34 -10 34
-5 0 -10 -18 -10 -41z"/>
<path d="M4465 3112 l-30 -17 39 -3 c45 -4 55 3 35 23 -12 12 -18 11 -44 -3z"/>
<path d="M4930 2891 l0 -221 154 2 153 1 7 105 c3 58 6 154 6 214 l0 108 -114
0 c-62 0 -134 3 -160 6 l-46 7 0 -222z"/>
<path d="M8183 4440 c0 -25 2 -35 4 -22 2 12 2 32 0 45 -2 12 -4 2 -4 -23z"/>
</g>
</svg>
